<svg width="22" height="22" viewBox="0 0 82 82" fill="none" xmlns="http://www.w3.org/2000/svg">
    <rect x=".579" width="81.021" height="81.021" rx="40.511" fill="url(#ctkce0iria)"/>
    <g clip-path="url(#0485yiyh9b)">
        <path d="M30.587 36.01a10.503 10.503 0 0 1 21.005 0v1.552a5.254 5.254 0 0 1 4.501 5.2v.374c0 2.664-2.297 4.998-4.999 4.874-1.11 3.18-3.934 5.325-6.981 5.868-.706.258-1.54.136-2.273.136a2.25 2.25 0 0 1 0-4.5c1.19 0 2.507-.174 3.311.913 1.944-.926 3.44-2.881 3.44-5.415V36.01a7.502 7.502 0 0 0-15.004 0v9.377a2.626 2.626 0 0 1-2.625 2.626 4.876 4.876 0 0 1-4.877-4.877v-.375a5.252 5.252 0 0 1 4.502-5.199V36.01z" fill="#fff"/>
    </g>
    <defs>
        <linearGradient id="ctkce0iria" x1="41.089" y1="0" x2="41.089" y2="81.021" gradientUnits="userSpaceOnUse">
            <stop offset="0%" stop-color="#00FF00" />
      <stop offset="100%" stop-color="#0000FF" />
        </linearGradient>
        <clipPath id="0485yiyh9b">
            <path fill="#fff" transform="translate(23.084 22.506)" d="M0 0h36.01v36.01H0z"/>
        </clipPath>
    </defs>
</svg>
