<svg width="38" height="54" viewBox="0 0 38 54" fill="none" xmlns="http://www.w3.org/2000/svg">
    <path d="M.635 53.076V45.21l18.38-17.02c1.564-1.512 2.875-2.873 3.934-4.084 1.075-1.21 1.89-2.395 2.445-3.555a8.815 8.815 0 0 0 .832-3.807c0-1.513-.344-2.815-1.033-3.908a6.786 6.786 0 0 0-2.824-2.546c-1.194-.606-2.547-.908-4.06-.908-1.58 0-2.958.32-4.135.958a6.604 6.604 0 0 0-2.723 2.748c-.638 1.194-.958 2.614-.958 4.261H.131c0-3.378.765-6.311 2.294-8.8 1.53-2.487 3.673-4.411 6.43-5.773C11.61 1.415 14.788.734 18.385.734c3.698 0 6.917.655 9.657 1.966 2.756 1.295 4.9 3.093 6.429 5.396 1.53 2.303 2.294 4.942 2.294 7.917 0 1.95-.386 3.874-1.16 5.774-.756 1.9-2.109 4.009-4.059 6.328-1.95 2.303-4.698 5.068-8.244 8.295l-7.54 7.388v.353h21.684v8.925H.636z" fill="url(#j6plqx5b8a)"/>
    <defs>
        <linearGradient id="j6plqx5b8a" x1="18.95" y1="-25.924" x2="18.95" y2="81.076" gradientUnits="userSpaceOnUse">
             <stop offset="0%" stop-color="#00FF00" />
      <stop offset="100%" stop-color="#0000FF" />
        </linearGradient>
    </defs>
</svg>
