<svg width="644" height="413" viewBox="0 0 644 413" fill="none" xmlns="http://www.w3.org/2000/svg">
    <path d="M287.598 100.332c-.289-2.916-1.53-5.181-3.723-6.796-2.194-1.615-5.17-2.422-8.93-2.422-2.554 0-4.711.362-6.471 1.085-1.759.698-3.109 1.675-4.048 2.928-.916 1.253-1.374 2.675-1.374 4.266-.048 1.325.229 2.482.831 3.47.627.988 1.482 1.844 2.567 2.567 1.085.699 2.338 1.313 3.76 1.843 1.422.507 2.94.94 4.555 1.302l6.651 1.59c3.23.723 6.194 1.687 8.893 2.892 2.7 1.206 5.037 2.688 7.014 4.447a18.487 18.487 0 0 1 4.591 6.218c1.108 2.386 1.675 5.121 1.699 8.206-.024 4.531-1.181 8.459-3.471 11.785-2.265 3.302-5.543 5.869-9.833 7.7-4.265 1.808-9.411 2.712-15.436 2.712-5.977 0-11.182-.916-15.617-2.748-4.41-1.832-7.857-4.543-10.339-8.134-2.458-3.615-3.748-8.085-3.868-13.412h15.147c.169 2.483.88 4.555 2.133 6.218 1.277 1.639 2.976 2.88 5.097 3.724 2.145.819 4.567 1.229 7.266 1.229 2.651 0 4.953-.386 6.905-1.157 1.976-.771 3.507-1.844 4.591-3.217 1.085-1.374 1.627-2.953 1.627-4.736 0-1.663-.494-3.061-1.482-4.194-.964-1.132-2.386-2.096-4.266-2.892-1.856-.795-4.133-1.518-6.832-2.169l-8.062-2.024c-6.242-1.518-11.171-3.892-14.786-7.122-3.615-3.229-5.41-7.579-5.386-13.05-.024-4.483 1.169-8.399 3.579-11.749 2.434-3.35 5.772-5.965 10.014-7.845 4.241-1.88 9.061-2.82 14.46-2.82 5.495 0 10.291.94 14.388 2.82 4.121 1.88 7.326 4.495 9.616 7.845 2.289 3.35 3.47 7.23 3.543 11.64h-15.003zm51.56 53.829c-5.712 0-10.628-1.157-14.75-3.471-4.097-2.338-7.254-5.639-9.471-9.905-2.217-4.29-3.326-9.363-3.326-15.219 0-5.712 1.109-10.725 3.326-15.039s5.338-7.676 9.363-10.086c4.049-2.41 8.797-3.615 14.243-3.615 3.664 0 7.074.59 10.231 1.771 3.181 1.157 5.953 2.904 8.315 5.242 2.385 2.338 4.241 5.278 5.567 8.821 1.325 3.518 1.988 7.64 1.988 12.363v4.23h-46.887v-9.544h32.391c0-2.217-.482-4.181-1.446-5.892a10.36 10.36 0 0 0-4.013-4.013c-1.687-.988-3.651-1.482-5.893-1.482-2.337 0-4.41.542-6.218 1.627a11.404 11.404 0 0 0-4.193 4.301c-1.012 1.784-1.53 3.772-1.555 5.965v9.074c0 2.748.507 5.121 1.519 7.122 1.036 2 2.494 3.543 4.374 4.627 1.88 1.085 4.109 1.627 6.688 1.627 1.711 0 3.278-.241 4.699-.723 1.422-.482 2.639-1.205 3.652-2.169 1.012-.964 1.783-2.145 2.313-3.543l14.244.94c-.723 3.422-2.206 6.411-4.447 8.965-2.217 2.531-5.085 4.507-8.604 5.929-3.494 1.398-7.531 2.097-12.11 2.097zm50.936-75.121v74.036h-15.4V79.04h15.4zm42.197 18.509v11.568H398.02V97.549h34.271zm-26.426 55.527v-59.54c0-4.025.783-7.362 2.349-10.014 1.591-2.65 3.76-4.639 6.508-5.964 2.747-1.326 5.868-1.989 9.363-1.989 2.361 0 4.518.181 6.471.543 1.976.361 3.446.687 4.41.976l-2.748 11.568a19.2 19.2 0 0 0-2.241-.542 13.985 13.985 0 0 0-2.675-.254c-2.265 0-3.844.53-4.736 1.591-.891 1.037-1.337 2.495-1.337 4.374v59.251h-15.364z" fill="#fff"/>
    <path d="M285.309 165.892c-.275-2.773-1.455-4.927-3.54-6.463-2.086-1.535-4.916-2.303-8.491-2.303-2.429 0-4.48.344-6.153 1.031-1.673.665-2.956 1.593-3.85 2.785-.871 1.191-1.306 2.544-1.306 4.056-.046 1.26.217 2.36.79 3.3.596.94 1.41 1.753 2.441 2.441 1.031.664 2.223 1.249 3.575 1.753 1.352.481 2.796.894 4.331 1.237l6.325 1.513c3.071.687 5.89 1.604 8.457 2.75 2.566 1.146 4.789 2.555 6.668 4.228a17.58 17.58 0 0 1 4.366 5.912c1.054 2.269 1.593 4.87 1.616 7.804-.023 4.308-1.123 8.043-3.3 11.206-2.155 3.139-5.271 5.58-9.35 7.322-4.057 1.718-8.949 2.578-14.679 2.578-5.683 0-10.633-.871-14.85-2.613-4.193-1.741-7.47-4.319-9.831-7.734-2.337-3.438-3.563-7.689-3.678-12.753h14.403c.161 2.36.837 4.331 2.028 5.912 1.215 1.559 2.83 2.739 4.847 3.541 2.04.779 4.343 1.169 6.91 1.169 2.52 0 4.709-.367 6.565-1.1 1.879-.734 3.335-1.753 4.366-3.06 1.031-1.306 1.547-2.807 1.547-4.503 0-1.581-.47-2.91-1.41-3.987-.916-1.077-2.268-1.994-4.056-2.75-1.765-.757-3.93-1.444-6.497-2.063l-7.665-1.925c-5.936-1.444-10.622-3.701-14.06-6.772-3.437-3.071-5.145-7.207-5.122-12.409-.023-4.263 1.112-7.987 3.403-11.172 2.315-3.185 5.489-5.672 9.522-7.459 4.034-1.788 8.617-2.682 13.75-2.682 5.225 0 9.786.894 13.682 2.682 3.918 1.787 6.966 4.274 9.143 7.459 2.177 3.185 3.3 6.875 3.369 11.069h-14.266zm49.028 51.184c-5.432 0-10.107-1.1-14.025-3.3-3.896-2.223-6.898-5.362-9.007-9.419-2.108-4.079-3.162-8.903-3.162-14.471 0-5.432 1.054-10.198 3.162-14.3 2.109-4.103 5.077-7.299 8.904-9.591 3.85-2.292 8.364-3.438 13.543-3.438 3.484 0 6.726.562 9.728 1.685 3.025 1.1 5.661 2.761 7.907 4.984 2.268 2.223 4.033 5.019 5.293 8.388 1.261 3.346 1.891 7.264 1.891 11.756v4.022h-44.584v-9.075h30.8c0-2.109-.459-3.976-1.375-5.603a9.857 9.857 0 0 0-3.816-3.816c-1.604-.94-3.472-1.409-5.603-1.409-2.223 0-4.194.515-5.913 1.547a10.84 10.84 0 0 0-3.987 4.09c-.963 1.696-1.455 3.587-1.478 5.672v8.628c0 2.613.481 4.87 1.444 6.772.985 1.902 2.371 3.369 4.159 4.4 1.787 1.031 3.907 1.547 6.359 1.547 1.627 0 3.117-.229 4.469-.688 1.352-.458 2.509-1.145 3.472-2.062.962-.917 1.696-2.04 2.2-3.369l13.544.894c-.688 3.254-2.097 6.096-4.228 8.525-2.109 2.406-4.836 4.285-8.182 5.637-3.323 1.33-7.161 1.994-11.515 1.994zm33.79-1.031v-52.8h14.197v9.212h.55c.963-3.277 2.578-5.752 4.847-7.425 2.269-1.695 4.881-2.543 7.838-2.543.733 0 1.524.046 2.371.137.848.092 1.593.218 2.235.378v12.994c-.688-.206-1.639-.39-2.853-.55a25.715 25.715 0 0 0-3.335-.241c-2.154 0-4.079.47-5.775 1.41a10.368 10.368 0 0 0-3.987 3.85c-.963 1.65-1.444 3.552-1.444 5.706v29.872h-14.644zm90.441-52.8-18.459 52.8h-16.5l-18.46-52.8h15.469l10.966 37.778h.55l10.931-37.778h15.503zm29.855 53.831c-5.432 0-10.107-1.1-14.025-3.3-3.896-2.223-6.898-5.362-9.007-9.419-2.108-4.079-3.162-8.903-3.162-14.471 0-5.432 1.054-10.198 3.162-14.3 2.109-4.103 5.076-7.299 8.904-9.591 3.85-2.292 8.364-3.438 13.543-3.438 3.484 0 6.726.562 9.728 1.685 3.025 1.1 5.661 2.761 7.907 4.984 2.268 2.223 4.033 5.019 5.293 8.388 1.261 3.346 1.891 7.264 1.891 11.756v4.022h-44.584v-9.075h30.8c0-2.109-.459-3.976-1.375-5.603a9.857 9.857 0 0 0-3.816-3.816c-1.604-.94-3.472-1.409-5.603-1.409-2.223 0-4.194.515-5.913 1.547a10.84 10.84 0 0 0-3.987 4.09c-.963 1.696-1.455 3.587-1.478 5.672v8.628c0 2.613.481 4.87 1.444 6.772.985 1.902 2.371 3.369 4.159 4.4 1.787 1.031 3.907 1.547 6.359 1.547 1.627 0 3.117-.229 4.469-.688 1.352-.458 2.509-1.145 3.472-2.062.962-.917 1.696-2.04 2.2-3.369l13.544.894c-.688 3.254-2.097 6.096-4.228 8.525-2.109 2.406-4.836 4.285-8.182 5.637-3.323 1.33-7.161 1.994-11.515 1.994z" fill="#fff"/>
    <g opacity=".2" clip-path="url(#cday2ox3ca)" fill="#fff">
        <path d="M61.254 33.03a8.726 8.726 0 0 1 7.59-4.397h120.148a8.727 8.727 0 0 1 7.52 4.29l48.925 82.77c1.585 2.69 1.62 6.049.053 8.757a8.727 8.727 0 0 1-7.591 4.396H117.752a8.723 8.723 0 0 1-7.52-4.291L61.307 41.786c-1.586-2.69-1.62-6.049-.053-8.757zm61.5 78.372h99.858L183.99 46.077H84.131l38.623 65.325z"/>
        <path d="M.053 334.213c.035-.352.088-.686.158-1.02 0-.07 0-.158.036-.229 0-.017.017-.052.017-.07.106-.422.247-.844.423-1.248.053-.106.105-.211.14-.299.142-.299.3-.581.459-.862.07-.123.158-.246.246-.369.176-.264.37-.51.581-.756.07-.088.141-.194.23-.264.299-.317.598-.616.95-.879.07-.053.141-.106.212-.141.211-.158.44-.334.669-.475.035-.017.088-.035.123-.053a8.484 8.484 0 0 1 1.779-.791c.14-.035.264-.07.405-.105a8.166 8.166 0 0 1 1.62-.264c.141 0 .282-.035.423-.035H60.11V156.541L2.994 60.039a8.735 8.735 0 0 1-1.215-4.432V8.94a8.797 8.797 0 0 1 1.145-4.467 8.726 8.726 0 0 1 7.59-4.396H213.56c3.1 0 5.953 1.636 7.52 4.29l82.705 139.901c.194.317.352.651.493.985 0 .035.035.07.053.106.193.457.317.914.422 1.389.036.14.053.264.088.404.089.51.159 1.02.159 1.53v254.673c0 4.818-3.91 8.722-8.735 8.722H93.201a8.727 8.727 0 0 1-1.92-.228c-.158-.036-.316-.106-.493-.159-.457-.14-.898-.281-1.32-.492-.07-.035-.159-.053-.247-.088L4.755 368.115a8.727 8.727 0 0 1-4.773-7.772v-25.339c0-.105 0-.228.018-.334 0-.158 0-.299.035-.457h.018zM208.576 17.52H25.819l72.384 122.457H280.96L208.576 17.52zm78.953 139.9H101.954v237.195h185.575V157.42z"/>
        <path d="M176.945 169.87h-49.101c-4.826 0-8.736 3.904-8.736 8.722v11.641c0 4.818 3.91 8.722 8.736 8.722h49.101c4.826 0 8.736-3.904 8.736-8.722v-11.641c0-4.818-3.91-8.722-8.736-8.722z"/>
    </g>
    <defs>
        <clipPath id="cday2ox3ca">
            <path fill="#fff" transform="matrix(-1 0 0 1 305 .076)" d="M0 0h305v412H0z"/>
        </clipPath>
    </defs>
</svg>
