<svg width="40" height="54" viewBox="0 0 40 54" fill="none" xmlns="http://www.w3.org/2000/svg">
    <path d="M19.721 53.782c-3.765 0-7.118-.647-10.06-1.941-2.924-1.311-5.236-3.11-6.933-5.396C1.047 44.142.18 41.487.13 38.478h10.993c.067 1.26.479 2.37 1.235 3.328.773.941 1.799 1.672 3.076 2.194 1.278.52 2.715.781 4.312.781 1.664 0 3.134-.294 4.412-.882 1.277-.589 2.277-1.404 3-2.446.723-1.042 1.084-2.244 1.084-3.606 0-1.378-.386-2.596-1.16-3.655-.756-1.076-1.848-1.917-3.277-2.522-1.412-.605-3.093-.907-5.043-.907h-4.815v-8.018h4.815c1.647 0 3.101-.286 4.362-.857 1.278-.572 2.27-1.362 2.975-2.37.706-1.026 1.06-2.22 1.06-3.58 0-1.295-.312-2.43-.934-3.404-.605-.992-1.462-1.765-2.571-2.32-1.093-.555-2.37-.832-3.833-.832-1.479 0-2.832.269-4.06.807-1.226.52-2.21 1.269-2.949 2.244-.74.975-1.135 2.118-1.185 3.429H1.165c.05-2.976.899-5.598 2.546-7.867 1.647-2.269 3.866-4.042 6.656-5.32C13.174 1.381 16.343.734 19.873.734c3.563 0 6.681.647 9.354 1.941 2.672 1.295 4.748 3.043 6.227 5.245 1.496 2.185 2.236 4.639 2.22 7.362.016 2.89-.883 5.303-2.699 7.236-1.798 1.933-4.143 3.16-7.034 3.681v.403c3.799.488 6.69 1.807 8.673 3.959 2 2.135 2.992 4.807 2.975 8.018.017 2.941-.832 5.555-2.546 7.84-1.698 2.287-4.043 4.085-7.035 5.397-2.992 1.31-6.42 1.966-10.287 1.966z" fill="url(#dzeau033ua)"/>
    <defs>
        <linearGradient id="dzeau033ua" x1="19.95" y1="-25.924" x2="19.95" y2="81.076" gradientUnits="userSpaceOnUse">
             <stop offset="0%" stop-color="#00FF00" />
      <stop offset="100%" stop-color="#0000FF" />
        </linearGradient>
    </defs>
</svg>
