<svg xmlns="http://www.w3.org/2000/svg" width="71" height="71" viewBox="0 0 71 71">
    <g fill="none" fill-rule="evenodd">
        <g>
            <g transform="translate(-1222 -2061) translate(1222.468 2061.087)">
                <circle cx="35" cy="35" r="35" fill="#E4FFD5"/>
                <g fill="#000">
                    <path d="M42.083 22.219l-9.159-1.541-2.654-4.017c-.68-1.038-1.838-1.663-3.079-1.664h-13.68c-1.241.001-2.398.626-3.079 1.663l-2.677 4.055-5.654 1.426C.861 22.458-.005 23.577 0 24.857v4.693c0 1.101.425 2.135 1.196 2.914.761.774 1.802 1.21 2.888 1.207h2.485c.43 2.13 2.298 3.735 4.531 3.735 2.234 0 4.103-1.606 4.532-3.735h12.213c.43 2.13 2.298 3.735 4.532 3.735 2.233 0 4.101-1.606 4.531-3.735h4.146c.706 0 1.34-.396 1.655-1.032l1.497-3.022c.034-.074.06-.15.078-.23l.092-.386c.016-.073.025-.146.025-.218v-3.801c.008-1.365-.974-2.534-2.319-2.763h.001zM11.1 35.539c-1.53 0-2.774-1.257-2.774-2.802 0-1.544 1.245-2.8 2.774-2.8 1.53 0 2.776 1.256 2.776 2.8 0 1.545-1.245 2.802-2.776 2.802zm21.277 0c-1.53 0-2.776-1.257-2.776-2.802 0-1.544 1.245-2.8 2.775-2.8 1.53 0 2.776 1.256 2.776 2.8 0 1.545-1.245 2.802-2.776 2.802zm10.175-6.866l-1.498 3.131h-4.146c-.43-2.13-2.299-3.735-4.532-3.735-2.234 0-4.102 1.606-4.532 3.735H15.632c-.43-2.13-2.298-3.735-4.532-3.735-2.233 0-4.101 1.606-4.531 3.735H4.083c-.594 0-1.163-.237-1.58-.66-.42-.424-.655-.997-.653-1.594v-4.693c0-.428.289-.8.7-.904l6-1.514c.223-.056.418-.195.545-.388l2.876-4.355c.341-.518.92-.83 1.54-.83h13.68c.62 0 1.195.311 1.54.83l2.875 4.356c.143.214.367.36.619.402l9.553 1.607c.449.076.774.463.774.92v3.692zM34.227.059H10.175c-.246 0-.482.1-.655.275-.174.175-.27.412-.27.658 0 .516.414.934.925.934h24.052c.246-.002.482-.1.656-.276.173-.175.27-.412.269-.658 0-.246-.096-.483-.27-.658-.173-.175-.409-.274-.655-.275zM14.636 4.196c-.345-.503-1.176-.503-1.521 0-.606.884-2.014 3.071-2.014 4.265 0 1.546 1.244 2.802 2.775 2.802 1.53 0 2.774-1.256 2.774-2.802 0-1.194-1.408-3.38-2.013-4.265h-.001zm-.76 5.2c-.513-.003-.926-.42-.925-.932.007-.287.392-1.1.925-2.006.533.904.918 1.72.925 2.006 0 .512-.413.929-.925.932zm8.16-3.332c-.344-.504-1.175-.504-1.521 0-.606.884-2.014 3.07-2.014 4.265 0 1.545 1.245 2.801 2.775 2.801 1.53 0 2.775-1.256 2.775-2.802 0-1.194-1.409-3.38-2.014-4.264zm-.76 5.199c-.513-.003-.926-.42-.925-.932.008-.287.392-1.1.925-2.006.533.904.918 1.72.925 2.006 0 .512-.413.929-.925.932zm8.16-7.067c-.344-.503-1.176-.503-1.52 0-.606.884-2.014 3.071-2.014 4.265 0 1.546 1.244 2.802 2.774 2.802s2.775-1.256 2.775-2.802c0-1.194-1.408-3.38-2.014-4.265zm-.76 5.2c-.512-.003-.926-.42-.925-.932.008-.287.392-1.1.925-2.006.534.904.918 1.72.925 2.006.001.512-.412.929-.925.932z" transform="translate(12.756 16.268)"/>
                </g>
            </g>
        </g>
    </g>
</svg>
