<svg xmlns="http://www.w3.org/2000/svg" xmlns:xlink="http://www.w3.org/1999/xlink" width="71" height="71" viewBox="0 0 71 71">
    <defs>
        <path id="8deycoveea" d="M0.059 0.07L22.198 0.07 22.198 1.519 0.059 1.519z"/>
        <path id="pdje96r7fc" d="M0.079 0.049L8.067 0.049 8.067 13.208 0.079 13.208z"/>
    </defs>
    <g fill="none" fill-rule="evenodd">
        <g>
            <g>
                <g fill="#F4D4FF" transform="translate(-1222 -2594) translate(1222.468 2594.5)">
                    <circle cx="35" cy="35" r="35"/>
                </g>
                <g>
                    <g>
                        <g transform="translate(-1222 -2594) translate(1222.468 2594.5) translate(14.651 22.79) translate(17.66 21.66)">
                            <mask id="0imiwp98ob" fill="#fff">
                                <use xlink:href="#8deycoveea"/>
                            </mask>
                            <path fill="#000" fill-rule="nonzero" d="M21.007.07H8.51c.023.076.035.156.036.236 0 .252-.1.446-.223.446H2.505c-.122 0-.223-.193-.223-.447 0-.092.014-.15.037-.235H.085v1.296c0 .04-.022.068-.026.153h20.95c.654 0 1.19-.336 1.19-.725 0-.388-.536-.724-1.19-.724" mask="url(#0imiwp98ob)"/>
                        </g>
                    </g>
                    <path fill="#000" fill-rule="nonzero" d="M36.211 0h-26.05c-.984 0-1.795.85-1.795 1.844v2.075h1.182V1.844c0-.332.285-.566.613-.566h26.05c.328 0 .631.234.631.566v17.338c0 .33-.303.588-.63.588H17.744v1.193h18.466c.985 0 1.814-.788 1.814-1.781V1.844C38.025.85 37.196 0 36.21 0" transform="translate(-1222 -2594) translate(1222.468 2594.5) translate(14.651 22.79)"/>
                    <path fill="#000" fill-rule="nonzero" d="M7.436 23.025v-.784h-5.66c-.329 0-.593-.23-.593-.562V6.867c0-.331.264-.561.593-.561h10.668c.328 0 .57.23.57.561V9.29h1.182V6.867c0-.993-.767-1.84-1.752-1.84H1.776C.791 5.028 0 5.875 0 6.868V21.68c0 .993.79 1.84 1.776 1.84h5.757c-.053-.17-.098-.335-.098-.494" transform="translate(-1222 -2594) translate(1222.468 2594.5) translate(14.651 22.79)"/>
                    <g>
                        <g transform="translate(-1222 -2594) translate(1222.468 2594.5) translate(14.651 22.79) translate(8.619 10.326)">
                            <mask id="3s5gr2zrpd" fill="#fff">
                                <use xlink:href="#pdje96r7fc"/>
                            </mask>
                            <path fill="#333" fill-rule="nonzero" d="M1.865 1.25c-.33.002-.596.27-.595.6v9.557c0 .331.267.6.595.6H6.28c.328 0 .595-.268.595-.6V1.85c.001-.33-.265-.598-.595-.6H1.864zM6.28 13.207H1.864c-.99-.005-1.789-.811-1.786-1.801V1.85C.078.857.88.048 1.864.048H6.28c.985 0 1.786.808 1.786 1.802v9.557c0 .993-.8 1.801-1.786 1.801h.001z" mask="url(#3s5gr2zrpd)"/>
                        </g>
                    </g>
                </g>
            </g>
        </g>
    </g>
</svg>
