<svg xmlns="http://www.w3.org/2000/svg" xmlns:xlink="http://www.w3.org/1999/xlink" width="71" height="71" viewBox="0 0 71 71">
    <defs>
        <path id="50f3rc2ola" d="M0.764 0.694L33.554 0.694 33.554 36.026 0.764 36.026z"/>
    </defs>
    <g fill="none" fill-rule="evenodd">
        <g>
            <g transform="translate(-256 -2861) translate(256.526 2861.61)">
                <circle cx="35" cy="35" r="35" fill="#F8E4FF"/>
                <g transform="translate(17.907 16.686)">
                    <mask id="qgmrg0th8b" fill="#fff">
                        <use xlink:href="#50f3rc2ola"/>
                    </mask>
                    <path fill="#000" fill-rule="nonzero" d="M31.273 34.209l.14-.112c0 .018-.065.064-.14.112zm-9.994.246H7.125c-1.02 0-2.044.007-3.064 0-.075 0-.15-.004-.225-.008-.137-.027-.27-.062-.403-.106-.126-.06-.248-.129-.364-.206l-.151-.13c-.048-.048-.095-.097-.139-.147l-.019-.03c-.07-.102-.133-.21-.188-.32-.044-.122-.08-.247-.106-.373-.024-.303-.01-.613-.01-.917V3.811c0-.074.002-.149.008-.221.027-.132.063-.261.109-.387.052-.104.11-.204.175-.3l.039-.053.135-.145c.049-.047.1-.092.152-.135.116-.075.237-.142.363-.2.126-.042.254-.076.385-.101.28-.02.564-.01.844-.01h22.492c1.028 0 2.06-.008 3.091 0 .075 0 .15.002.226.008.136.025.27.06.402.105.126.06.248.129.365.206l.15.13c.05.049.095.097.14.148l.019.028c.071.104.133.211.188.321.044.123.078.247.105.373.025.303.01.612.01.916V32.9c0 .075-.002.15-.007.222-.027.132-.063.261-.109.388-.063.122-.135.24-.215.352-.045.048-.089.098-.135.145-.049.047-.1.092-.152.134l-.03.019c-.106.068-.218.129-.333.182-.125.041-.253.075-.382.1-.073.006-.145.01-.218.012h-8.995zM2.81 33.893l.116.136c-.02 0-.066-.062-.116-.136zm.326-31.291l-.14.113c0-.02.065-.065.14-.113zm28.462.315l-.115-.136c.018 0 .066.063.115.136zm2.533.044c-.13-.63-.466-1.195-.89-1.683-.43-.5-1.007-.836-1.625-1.072-.454-.176-.952-.233-1.442-.233H4.27c-.11 0-.225-.003-.336.005C2.582.028 1.33.733.637 1.862c-.455.74-.546 1.545-.546 2.377V32.81c0 .355.031.706.12 1.054.319 1.27 1.335 2.254 2.592 2.69.617.213 1.262.194 1.906.194h25.564c.04 0 .081-.002.12-.007 1.301-.042 2.503-.71 3.233-1.798.403-.606.598-1.34.6-2.056V4.441c0-.504.008-.98-.094-1.48z" mask="url(#qgmrg0th8b)"/>
                    <path fill="#000" fill-rule="nonzero" d="M8.824 26.883l.064.06-.14-.136.076.076" mask="url(#qgmrg0th8b)"/>
                    <path fill="#000" fill-rule="nonzero" d="M27.62 22.107c-.138.861-.377 1.703-.713 2.508-.222.487-.476.957-.769 1.407-.151.232-.31.464-.477.684l-.11.143c.004-.007.01-.012.015-.018-.006.034-.056.08-.095.119-.045.056-.03.038 0 0-.013.012-.025.024-.036.037-.056.064-.112.13-.167.19-.461.521-.97.998-1.519 1.426l-.106.083.062-.045-.103.076-.011.008-.005.003c-.225.161-.456.315-.691.46-.539.33-1.104.616-1.688.86-.83.317-1.691.543-2.57.672-.971.115-1.953.116-2.924.003-.895-.131-1.774-.36-2.62-.681-.507-.21-.999-.456-1.47-.736-.242-.144-.486-.296-.716-.456-.05-.034-.1-.07-.15-.106l.019.014c-.035-.005-.085-.053-.124-.09-.013-.012-.026-.024-.04-.034-.652-.506-1.247-1.08-1.775-1.714l.047.06-.08-.1-.008-.01-.004-.004c-.168-.215-.328-.435-.48-.661-.345-.516-.644-1.057-.9-1.614-.33-.79-.566-1.615-.702-2.459-.121-.928-.122-1.868-.004-2.796.138-.858.376-1.697.713-2.505.222-.488.476-.958.77-1.407.15-.232.31-.465.475-.685l.111-.143-.015.017c.007-.032.057-.08.096-.118.043-.056.03-.038 0 0l.035-.037c.505-.595 1.07-1.136 1.686-1.616.034-.028.07-.055.107-.082l-.063.044.103-.076.011-.007.005-.004c.225-.162.455-.315.691-.46.54-.33 1.105-.616 1.688-.86.83-.317 1.691-.542 2.57-.671.971-.116 1.952-.117 2.924-.004.897.132 1.775.36 2.62.681.51.212 1.001.455 1.471.736.242.145.485.297.716.456l.149.105-.018-.014c.034.006.084.053.124.09.059.043.039.03 0 .002.012.012.025.023.039.034.067.053.135.106.198.16.575.465 1.103.985 1.577 1.553l-.047-.06.08.1.008.01.004.004c.168.215.329.435.481.661.343.516.644 1.057.9 1.615.328.79.566 1.613.702 2.456.12.928.121 1.868.003 2.796" mask="url(#qgmrg0th8b)"/>
                    <path fill-rule="nonzero" stroke="#000" d="M27.752 13.633c-1.561-2.092-3.708-3.664-6.233-4.55-2.507-.878-5.346-.955-7.905-.252-2.46.673-4.734 2.069-6.364 3.961-1.729 2.012-2.767 4.434-2.981 7.033-.211 2.525.444 5.125 1.817 7.287 1.323 2.092 3.318 3.833 5.651 4.84 1.287.555 2.65.915 4.043 1.069 1.347.151 2.715.068 4.042-.188 2.521-.495 4.84-1.725 6.662-3.535 1.789-1.786 3.036-4.106 3.43-6.556.107-.67.175-1.335.18-2.012v-.004c-.009-2.516-.812-5.04-2.342-7.093" mask="url(#qgmrg0th8b)"/>
                    <path fill="#000" fill-rule="nonzero" d="M23.604 28.747L23.666 28.685 23.525 28.822 23.603 28.747M25.47 26.984l.007-.006c.035-.036.077-.07.111-.107l.023-.022-.14.136v-.001zM10.652 28.668l.006.006c.036.034.073.074.11.107l.023.022-.14-.136M8.914 14.496l-.006.005c-.034.036-.076.072-.11.107l-.023.023.14-.136zM23.709 12.835l-.007-.006c-.036-.033-.073-.073-.11-.107l-.023-.022c.046.046.093.09.14.135M25.554 14.585l-.064-.06.14.136-.076-.076M10.745 12.748l-.062.062c.077-.073.12-.115.14-.136l-.078.074M20.788 25.84c-.358.225-.734.422-1.124.589-.527.198-1.073.338-1.633.425-.584.062-1.17.062-1.75-.002-.548-.084-1.086-.225-1.605-.42-.394-.165-.773-.364-1.134-.593l-.019-.012.158-.152 2.576-2.463 3.128-2.991 2.695-2.578c.14-.132.28-.265.423-.398l.01.014c.236.341.442.7.616 1.076.207.503.355 1.025.445 1.56.066.557.065 1.12-.001 1.676-.09.526-.237 1.04-.44 1.534-.222.482-.497.937-.82 1.358l.037-.042-.052.063-.05.06-.005.007c-.171.193-.342.372-.517.543-.205.196-.421.38-.648.552-.096.065-.191.13-.29.193M13.256 25.675l-.008-.007-.072-.07c-.058-.057-.082-.087.098.092l-.019-.015M22.218 16.869l.038.035c.027.026.055.052.081.08l.005.004.013.014c-.049-.04-.094-.085-.137-.133" mask="url(#qgmrg0th8b)"/>
                    <path fill="#F8E4FF" fill-rule="nonzero" d="M21.726 14.75l-1.077 1.031-2.576 2.463-3.128 2.992-2.695 2.577c-.437.419-.89.832-1.32 1.262l-.02.019c-.217.211-.34.502-.34.806 0 .304.123.594.34.806 1.257 1.194 2.903 2.049 4.656 2.333 1.844.297 3.668.073 5.37-.668.917-.4 1.76-.985 2.475-1.665 1.249-1.202 2.143-2.775 2.44-4.452.31-1.763.077-3.509-.698-5.135-.418-.878-1.03-1.685-1.741-2.368-.453-.437-1.233-.434-1.686 0z" mask="url(#qgmrg0th8b)"/>
                    <path fill="#000" fill-rule="nonzero" d="M22.262 24.558l.071-.07.006-.008.016-.017c-.185.174-.154.151-.093.095M21.097 25.672l.083-.079.036-.036c-.049.04-.095.085-.138.132l.014-.012.006-.005M5.304 5.432l-.003.007-.015-.105c.009.033.015.066.018.1" mask="url(#qgmrg0th8b)"/>
                    <path fill="#000" fill-rule="nonzero" d="M5.8 7.182c.9 0 1.597-.616 1.786-1.408.037-.11.055-.225.05-.349.004-.105-.01-.211-.042-.312-.18-.846-.93-1.449-1.795-1.444-.993-.004-1.84.806-1.836 1.756.004.955.835 1.756 1.836 1.756M11.185 7.182c.9 0 1.597-.616 1.787-1.408.037-.11.055-.225.05-.349.003-.105-.01-.211-.042-.312-.181-.846-.93-1.449-1.795-1.444-.994-.004-1.84.806-1.836 1.756.004.955.835 1.756 1.836 1.756" mask="url(#qgmrg0th8b)"/>
                </g>
            </g>
        </g>
    </g>
</svg>
