<svg xmlns="http://www.w3.org/2000/svg" width="71" height="70" viewBox="0 0 71 70">
    <g fill="none" fill-rule="evenodd">
        <g>
            <g transform="translate(-737 -2327) translate(737.276 2326.997)">
                <circle cx="35" cy="35" r="35" fill="#FEF2C4"/>
                <g fill="#000" fill-rule="nonzero">
                    <path d="M38.132 13.645H34.85c1.364-3.098 1.217-5.606.7-7.302-.885-3.024-3.872-6.306-8.297-6.306-1.18 0-2.36.221-3.577.664-2.102.774-3.504 1.622-4.13 2.065-.628-.443-1.992-1.29-4.13-2.065C14.197.258 12.98.037 11.837.037c-4.425 0-7.413 3.282-8.298 6.306-.516 1.807-.7 4.536 1.033 7.966H.59c-.332 0-.59.258-.59.59 0 .332.258.59.59.59h4.684c.184.332.405.664.663.996 3.836 5.531 12.17 11.542 13.682 11.911v.037s.037 0 .074-.037h.11v-.037c1.291-.627 9.294-5.79 13.498-11.911.406-.554.738-1.107 1.033-1.66h3.872c.332 0 .59-.258.59-.59 0-.332-.332-.553-.664-.553zm-5.9 2.176c-3.91 5.716-11.1 10.326-12.65 11.321-1.585-.995-8.74-5.642-12.686-11.321l-.221-.332h5.421c.221 0 .443-.11.553-.332l2.471-4.868 3.872 9.92c.074.221.332.369.553.369h.037c.258 0 .48-.184.553-.443L23.528 8.52l1.807 5.863c.074.222.258.37.48.406.221.037.442-.074.59-.258l1.438-2.102 1.217 2.065c.11.185.295.295.516.295h3.32c-.222.369-.443.7-.664 1.033zm1.327-2.176h-3.614l-1.512-2.582c-.11-.184-.295-.295-.516-.295-.222 0-.406.074-.517.259l-1.253 1.843-2.029-6.6c-.073-.259-.332-.406-.59-.443-.258 0-.516.184-.59.442l-3.43 11.838-3.724-9.514c-.074-.222-.295-.37-.516-.37-.259 0-.443.111-.554.333l-2.913 5.716H5.937C4.462 11.58 4.057 8.998 4.72 6.675c.775-2.618 3.32-5.421 7.155-5.421 1.032 0 2.102.221 3.171.59 2.692.996 4.13 2.139 4.168 2.139.22.184.516.184.737 0 0 0 1.438-1.143 4.167-2.14 1.07-.405 2.14-.59 3.172-.59 3.798 0 6.38 2.804 7.154 5.422.627 2.139.295 4.5-.885 6.97z" transform="translate(15.465 20.756)"/>
                </g>
            </g>
        </g>
    </g>
</svg>
