<svg xmlns="http://www.w3.org/2000/svg" xmlns:xlink="http://www.w3.org/1999/xlink" width="71" height="70" viewBox="0 0 71 70">
    <defs>
        <path id="n4zorsn19a" d="M0 0.553L42.451 0.553 42.451 31.232 0 31.232z"/>
    </defs>
    <g fill="none" fill-rule="evenodd">
        <g>
            <g transform="translate(-979 -2327) translate(979.65 2326.997)">
                <circle cx="35" cy="35" r="35" fill="#E0FAFF"/>
                <g transform="translate(13.43 19.128)">
                    <mask id="c55d90f51b" fill="#fff">
                        <use xlink:href="#n4zorsn19a"/>
                    </mask>
                    <path fill="#000" fill-rule="nonzero" d="M34.77 11.434c-.246 0-.444.171-.445.382v5.824c0 .211.2.382.444.382h5.417c.118 0 .23-.04.314-.111.084-.072.13-.17.131-.271v-.842c0-.07-.022-.137-.063-.197l-3.476-4.982c-.08-.115-.225-.185-.38-.185h-1.943zM9.035 22.68c.877 0 1.726.206 2.52.613l.042.02c.184.095.381.217.591.366.032.024.065.043.099.062l.021.012c.08.06.183.093.289.092h14.045c.244 0 .443-.17.444-.382V2.5c0-.101-.047-.199-.13-.27-.084-.072-.197-.112-.314-.112H2.263c-.117 0-.23.04-.313.111-.083.072-.13.17-.13.271v20.962c0 .102.047.2.13.271.083.072.196.112.314.112h3.21c.109 0 .213-.034.294-.096l.017-.009c.035-.019.068-.04.1-.061.208-.15.405-.27.598-.371l.025-.011c.805-.41 1.651-.617 2.528-.617zm25.733 0c.878 0 1.725.206 2.521.613l.04.02c.185.095.382.217.591.366.033.024.066.043.1.062l.021.012c.08.06.183.093.29.092h1.855c.245 0 .443-.17.444-.382v-3.494c0-.212-.2-.383-.444-.382h-6.772c-.502 0-.909-.35-.91-.783v-6.988c-.001-.21-.2-.382-.444-.382h-2.71c-.117 0-.23.04-.313.112-.083.072-.13.169-.13.27v11.647c0 .101.047.199.13.27.083.072.196.112.314.112h1.855c.108 0 .213-.034.294-.096l.018-.009c.033-.019.066-.04.098-.061.21-.15.406-.27.599-.371l.025-.011c.805-.41 1.651-.617 2.528-.617zM6.693 25.158c-.518.492-.807 1.133-.81 1.798 0 1.496 1.414 2.712 3.153 2.712s3.153-1.216 3.153-2.712c-.003-.665-.291-1.305-.808-1.797l-.017-.017-.021-.016c-.6-.548-1.435-.858-2.309-.855-.884 0-1.723.312-2.308.858l-.035.03.002-.001zm25.732 0c-.517.492-.806 1.133-.81 1.798 0 1.496 1.415 2.712 3.154 2.712 1.739 0 3.153-1.216 3.153-2.712 0-.656-.286-1.295-.808-1.797l-.018-.017-.02-.016c-.6-.548-1.436-.858-2.309-.855-.874-.004-1.71.307-2.307.858l-.036.03.001-.001zm2.345 6.075c-2.744 0-4.974-1.918-4.974-4.277 0-.327.057-.667.178-1.068.034-.114.005-.236-.08-.33-.084-.094-.213-.148-.35-.148H14.261c-.137-.001-.268.053-.352.147-.084.094-.113.217-.077.331.12.401.177.741.177 1.068 0 2.36-2.23 4.277-4.972 4.277-2.743 0-4.974-1.918-4.974-4.277 0-.327.057-.667.179-1.068.034-.114.005-.237-.08-.33-.084-.094-.214-.149-.351-.148H.91c-.501 0-.91-.351-.91-.783V1.335C0 .904.409.553.91.553h27.087c.501 0 .91.35.91.782v8.153c0 .101.048.199.13.27.084.072.197.112.315.112h2.708c.244 0 .443-.171.443-.382V8.322c0-.431.41-.782.91-.782.503 0 .911.35.911.782v1.165c.001.212.2.382.445.382h2.708c.318 0 .616.146.78.38l4.063 5.823c.086.12.13.26.13.403v8.152c0 .431-.408.783-.91.783h-1.546c-.137-.002-.268.052-.353.146-.084.094-.113.217-.077.332.121.4.177.74.177 1.068 0 2.359-2.23 4.276-4.972 4.276v.001z" mask="url(#c55d90f51b)"/>
                    <path fill="#000" fill-rule="nonzero" d="M9.036 29.36c-.502 0-.91-.71-.91-1.586 0-.877.408-1.587.91-1.587s.91.71.91 1.587c0 .876-.408 1.587-.91 1.587M34.77 29.36c-.504 0-.91-.71-.91-1.586 0-.877.406-1.587.91-1.587.502 0 .91.71.91 1.587 0 .876-.408 1.587-.91 1.587" mask="url(#c55d90f51b)"/>
                </g>
            </g>
        </g>
    </g>
</svg>
