<svg width="195" height="58" viewBox="0 0 195 58" fill="none" xmlns="http://www.w3.org/2000/svg">
<g clip-path="url(#clip0_1_215)">
<path fill-rule="evenodd" clip-rule="evenodd" d="M187.747 58H7.25344C3.25576 58 0 54.7312 0 50.75V7.25C0 3.25436 3.25576 0 7.25344 0H187.747C191.741 0 195 3.25436 195 7.25V50.75C195 54.7312 191.741 58 187.747 58Z" fill="#171717"/>
<path fill-rule="evenodd" clip-rule="evenodd" d="M187.747 1.16072C191.1 1.16072 193.844 3.89801 193.844 7.25V50.75C193.844 54.102 191.118 56.8393 187.747 56.8393H7.25344C3.90043 56.8393 1.15608 54.102 1.15608 50.75V7.25C1.15608 3.89801 3.88242 1.16072 7.25344 1.16072H187.747ZM187.747 0H7.25344C3.25576 0 0 3.26883 0 7.25V50.75C0 54.7456 3.25576 58 7.25344 58H187.747C191.741 58 195 54.7456 195 50.75V7.25C195 3.26883 191.741 0 187.747 0Z" fill="#F5F4F6"/>
<path d="M98.4187 31.5404C95.0213 31.5404 92.2523 34.133 92.2523 37.7073C92.2523 41.2583 95.0213 43.8741 98.4187 43.8741C101.816 43.8741 104.585 41.2583 104.585 37.7073C104.585 34.133 101.816 31.5404 98.4187 31.5404ZM98.4187 41.4454C96.5568 41.4454 94.9506 39.904 94.9506 37.7073C94.9506 35.4873 96.5568 33.9692 98.4187 33.9692C100.281 33.9692 101.885 35.4873 101.885 37.7073C101.885 39.9026 100.281 41.4454 98.4187 41.4454ZM84.9651 31.5404C81.5678 31.5404 78.7988 34.133 78.7988 37.7073C78.7988 41.2583 81.5678 43.8741 84.9651 43.8741C88.3625 43.8741 91.1315 41.2583 91.1315 37.7073C91.1329 34.133 88.3625 31.5404 84.9651 31.5404ZM84.9651 41.4454C83.1032 41.4454 81.4985 39.904 81.4985 37.7073C81.4985 35.4873 83.1047 33.9692 84.9651 33.9692C86.827 33.9692 88.4318 35.4873 88.4318 37.7073C88.4332 39.9026 86.827 41.4454 84.9651 41.4454ZM68.9636 33.4327V36.0485H75.2007C75.0143 37.5202 74.5261 38.5947 73.7808 39.3429C72.8737 40.2535 71.4538 41.2583 68.9636 41.2583C65.1242 41.2583 62.1227 38.151 62.1227 34.2969C62.1227 30.4428 65.1242 27.3354 68.9636 27.3354C71.0349 27.3354 72.5472 28.1532 73.6638 29.2045L75.5026 27.3586C73.944 25.8637 71.8727 24.7182 68.9636 24.7182C63.7043 24.7182 59.2829 29.016 59.2829 34.2954C59.2829 39.5749 63.7043 43.8727 68.9636 43.8727C71.8019 43.8727 73.944 42.9389 75.6196 41.1858C77.3413 39.4574 77.8772 37.0272 77.8772 35.0654C77.8772 34.4578 77.831 33.8967 77.7371 33.4298H68.9636V33.4327ZM134.408 35.4641C133.897 34.0852 132.337 31.539 129.149 31.539C125.984 31.539 123.356 34.0388 123.356 37.7058C123.356 41.1626 125.961 43.8727 129.453 43.8727C132.268 43.8727 133.897 42.1443 134.572 41.1394L132.477 39.7373C131.78 40.7653 130.825 41.4425 129.453 41.4425C128.079 41.4425 127.102 40.8117 126.474 39.5734L134.689 36.163L134.408 35.4641ZM126.031 37.5202C125.961 35.1379 127.869 33.9228 129.242 33.9228C130.312 33.9228 131.219 34.4593 131.522 35.2307L126.031 37.5202ZM119.352 43.5H122.051V25.3736H119.352V43.5ZM114.93 32.9179H114.838C114.232 32.1944 113.07 31.539 111.604 31.539C108.531 31.539 105.716 34.249 105.716 37.729C105.716 41.1858 108.531 43.8727 111.604 43.8727C113.07 43.8727 114.232 43.2187 114.838 42.4705H114.93V43.3579C114.93 45.7171 113.673 46.9785 111.648 46.9785C109.996 46.9785 108.972 45.7867 108.553 44.7833L106.203 45.7649C106.877 47.4005 108.67 49.4088 111.648 49.4088C114.813 49.4088 117.49 47.5397 117.49 42.9853V31.9131H114.93V32.9179ZM111.836 41.4454C109.974 41.4454 108.416 39.8808 108.416 37.7305C108.416 35.5584 109.974 33.9692 111.836 33.9692C113.675 33.9692 115.116 35.5569 115.116 37.7305C115.116 39.8794 113.675 41.4454 111.836 41.4454ZM147.053 25.3736H140.595V43.5H143.289V36.6328H147.052C150.039 36.6328 152.975 34.4622 152.975 31.0039C152.975 27.5457 150.04 25.3736 147.053 25.3736ZM147.122 34.1098H143.289V27.8966H147.122C149.137 27.8966 150.281 29.5713 150.281 31.0039C150.281 32.4075 149.137 34.1098 147.122 34.1098ZM163.78 31.5071C161.828 31.5071 159.808 32.3698 158.971 34.2824L161.365 35.2858C161.876 34.2824 162.828 33.9561 163.827 33.9561C165.221 33.9561 166.638 34.7957 166.661 36.2877V36.4748C166.173 36.1949 165.127 35.7744 163.851 35.7744C161.272 35.7744 158.646 37.1969 158.646 39.8562C158.646 42.282 160.761 43.8437 163.13 43.8437C164.943 43.8437 165.941 43.0273 166.568 42.0718H166.66V43.471H169.261V36.5212C169.261 33.3022 166.869 31.5071 163.78 31.5071ZM163.453 41.441C162.571 41.441 161.339 40.9973 161.339 39.9026C161.339 38.5033 162.873 37.9668 164.196 37.9668C165.38 37.9668 165.938 38.2235 166.659 38.5729C166.451 40.252 165.01 41.441 163.453 41.441ZM178.74 31.9029L175.65 39.7619H175.558L172.353 31.9029H169.449L174.258 42.8867L171.516 48.997H174.327L181.739 31.9029H178.74ZM154.463 43.5H157.158V25.3736H154.463V43.5Z" fill="white"/>
<path d="M29.9245 28.1653L14.5455 44.5503C14.5469 44.5532 14.5469 44.5561 14.5484 44.559C15.0193 46.3396 16.6385 47.6489 18.5596 47.6489C19.3281 47.6489 20.0488 47.4401 20.6671 47.0747L20.7162 47.0457L38.0264 37.019L29.9245 28.1653Z" fill="#EB4335"/>
<path d="M45.4827 25.3755L45.4683 25.3653L37.9947 21.0154L29.5751 28.5365L38.0236 37.0161L45.4582 32.7111C46.7611 32.0049 47.6451 30.6259 47.6451 29.0353C47.6451 27.4562 46.7726 26.0831 45.4827 25.3755Z" fill="#FABC13"/>
<path d="M14.5455 13.4521C14.4531 13.7943 14.404 14.1525 14.404 14.5251V43.4773C14.404 43.85 14.4517 44.2096 14.5455 44.5503L30.4532 28.5844L14.5455 13.4521Z" fill="#547DBF"/>
<path d="M30.0372 29.0005L37.9975 21.0124L20.7061 10.9494C20.0777 10.571 19.3454 10.3535 18.5596 10.3535C16.6385 10.3535 15.0178 11.6657 14.5455 13.4478V13.4521L30.0372 29.0005Z" fill="#30A851"/>
<path d="M68.4303 14.1969H64.2299V15.2424H67.3773C67.2921 16.0921 66.9526 16.7605 66.385 17.2463C65.8159 17.732 65.0893 17.9756 64.2299 17.9756C63.2852 17.9756 62.4864 17.6479 61.8335 16.9911C61.1922 16.3226 60.8643 15.4976 60.8643 14.5C60.8643 13.5038 61.1922 12.6773 61.8335 12.0089C62.4864 11.3535 63.2852 11.0258 64.2299 11.0258C64.7138 11.0258 65.1745 11.1099 65.5978 11.2926C66.021 11.4753 66.3604 11.7305 66.6262 12.0582L67.425 11.2563C67.0624 10.8431 66.6016 10.527 66.034 10.2964C65.4649 10.0659 64.8712 9.95569 64.2299 9.95569C62.9703 9.95569 61.9058 10.3936 61.0348 11.2679C60.1623 12.1437 59.7275 13.224 59.7275 14.5C59.7275 15.776 60.1623 16.8577 61.0348 17.732C61.9058 18.6078 62.9703 19.0443 64.2299 19.0443C65.5486 19.0443 66.6016 18.6194 67.4134 17.7567C68.127 17.0404 68.491 16.0674 68.491 14.8523C68.491 14.6464 68.4664 14.4275 68.4303 14.1969Z" fill="white"/>
<path d="M70.0886 10.15V18.85H75.1485V17.7813H71.2023V15.0234H74.7599V13.978H71.2023V11.2201H75.1485V10.15H70.0886Z" fill="white"/>
<path d="M82.2638 11.2201V10.15H76.3083V11.2201H78.7292V18.85H79.8429V11.2201H82.2638Z" fill="white"/>
<path d="M87.6876 10.15H86.5739V18.85H87.6876V10.15Z" fill="white"/>
<path d="M95.0471 11.2201V10.15H89.0916V11.2201H91.5125V18.85H92.6262V11.2201H95.0471Z" fill="white"/>
<path d="M106.317 11.281C105.457 10.3936 104.404 9.95569 103.145 9.95569C101.887 9.95569 100.832 10.3936 99.9726 11.2679C99.1132 12.1307 98.69 13.2124 98.69 14.5C98.69 15.789 99.1132 16.8693 99.9726 17.732C100.832 18.6078 101.887 19.0443 103.145 19.0443C104.391 19.0443 105.457 18.6078 106.317 17.732C107.176 16.8693 107.599 15.789 107.599 14.5C107.599 13.224 107.176 12.1437 106.317 11.281ZM100.773 12.0089C101.414 11.3535 102.2 11.0258 103.145 11.0258C104.089 11.0258 104.875 11.3535 105.505 12.0089C106.146 12.6541 106.461 13.4922 106.461 14.5C106.461 15.5092 106.146 16.3473 105.505 16.9911C104.875 17.6479 104.089 17.9756 103.145 17.9756C102.2 17.9756 101.414 17.6479 100.773 16.9911C100.143 16.3357 99.8282 15.5092 99.8282 14.5C99.8282 13.4922 100.143 12.6657 100.773 12.0089Z" fill="white"/>
<path d="M110.274 13.4313L110.227 11.7537H110.274L114.681 18.85H115.843V10.15H114.729V15.2424L114.778 16.9186H114.729L110.517 10.15H109.162V18.85H110.274V13.4313Z" fill="white"/>
</g>
<defs>
<clipPath id="clip0_1_215">
<rect width="195" height="58" fill="white"/>
</clipPath>
</defs>
</svg>
